<?xml version="1.0" standalone="no"?>
<!DOCTYPE svg PUBLIC "-//W3C//DTD SVG 20010904//EN"
 "http://www.w3.org/TR/2001/REC-SVG-20010904/DTD/svg10.dtd">
<svg version="1.0" xmlns="http://www.w3.org/2000/svg"
 width="16.000000pt" height="16.000000pt" viewBox="0 0 16.000000 16.000000"
 preserveAspectRatio="xMidYMid meet">
<metadata>
Created by potrace 1.11, written by Peter Selinger 2001-2013
</metadata>
<g transform="translate(0.000000,16.000000) scale(0.002286,-0.002286)"
fill="#000000" stroke="none">
<path d="M628 6990 c-73 -13 -145 -38 -233 -83 -61 -32 -101 -62 -170 -132
-100 -99 -154 -189 -197 -325 l-23 -75 0 -2875 0 -2875 23 -75 c43 -136 97
-226 197 -325 99 -100 189 -154 325 -197 l75 -23 2875 0 2875 0 75 23 c136 43
226 97 325 197 100 99 154 189 197 325 l23 75 0 2875 0 2875 -23 75 c-43 136
-97 226 -197 325 -97 98 -183 151 -320 197 l-70 23 -2855 1 c-1570 1 -2876 -2
-2902 -6z m3493 -654 c68 -21 118 -49 171 -95 147 -130 190 -337 106 -512
-137 -288 -515 -344 -724 -107 -207 236 -109 602 190 708 63 23 192 25 257 6z
m-563 -911 c170 -72 168 -325 -3 -391 -168 -64 -337 95 -281 264 38 114 172
173 284 127z m659 -547 c23 -21 23 -23 23 -262 -1 -174 -4 -245 -13 -257 -21
-27 -54 -39 -111 -39 l-56 0 -2 -1567 -3 -1568 -23 -70 c-41 -119 -81 -184
-172 -275 -86 -87 -147 -125 -265 -165 -73 -26 -252 -31 -339 -11 -192 45
-362 184 -444 363 -65 141 -62 54 -62 1751 l0 1542 -60 0 c-71 0 -104 17 -119
62 -7 18 -11 114 -11 230 0 209 8 254 47 277 12 7 263 10 802 11 l785 0 23
-22z"/>
<path d="M3919 6165 c-59 -19 -131 -83 -160 -141 -32 -67 -31 -162 4 -230 89
-175 318 -203 448 -55 47 53 63 106 56 186 -13 175 -184 293 -348 240z"/>
<path d="M3436 5264 c-41 -40 7 -109 59 -86 14 6 27 23 31 37 13 50 -53 86
-90 49z"/>
<path d="M2740 4610 l0 -120 261 0 c264 0 288 -3 316 -39 16 -21 16 -71 0 -92
-26 -34 -54 -39 -231 -39 l-176 0 0 -465 0 -465 495 0 495 0 0 504 c0 342 4
513 11 535 15 42 55 61 129 61 l60 0 0 120 0 120 -680 0 -680 0 0 -120z"/>
<path d="M2910 2241 c0 -969 1 -1001 20 -1062 67 -215 259 -359 476 -359 217
0 413 152 474 367 19 65 20 106 20 1060 l0 993 -495 0 -495 0 0 -999z m794
753 l26 -27 0 -498 0 -498 -22 -25 c-13 -14 -35 -28 -50 -32 -23 -5 -34 0 -63
29 l-35 35 0 487 c0 350 3 492 12 508 28 54 89 63 132 21z m4 -1230 c20 -23
22 -35 22 -138 0 -110 -1 -114 -27 -140 -39 -39 -89 -33 -120 13 -20 30 -23
46 -23 138 0 103 0 105 30 135 26 25 36 29 63 24 18 -3 42 -17 55 -32z"/>
</g>
</svg>
