<svg width="10" height="29" viewBox="0 0 10 29" xmlns="http://www.w3.org/2000/svg"><g fill-rule="nonzero" fill="none"><path d="M1.855 25.22c0 1.352 1.156 2.49 2.528 2.49 1.373 0 2.53-1.138 2.53-2.49v-9.6H1.854v9.6zm3.395-8.106c0-.213.217-.426.434-.426.216 0 .433.213.433.426v4.694c0 .213-.217.426-.433.426-.217 0-.434-.213-.434-.426v-4.694zm0 6.116c0-.214.217-.427.434-.427.216 0 .433.213.433.427v.853c0 .213-.217.427-.433.427-.217 0-.434-.214-.434-.427v-.853z" fill="#C22222"/><path d="M8.284 7.3H.554c-.216 0-.433.215-.433.428V9.79c0 .214.218.427.435.427h.505v15.075c0 1.85 1.517 3.27 3.323 3.27 1.88 0 3.323-1.492 3.323-3.27V10.217h.506c.217 0 .433-.213.433-.427V7.728c0-.213-.144-.427-.36-.427zM6.912 25.22c0 1.352-1.156 2.49-2.53 2.49-1.37 0-2.527-1.138-2.527-2.49v-9.6h5.057v9.6zm.94-15.856h-.507c-.217 0-.433.213-.433.426v5.05H1.855v-4.623H3.59c.215 0 .432-.213.432-.427 0-.213-.217-.426-.433-.426H.987v-1.21h6.935v1.21H7.85z" fill="#000C1F"/><path d="M5.61 24.51c.218 0 .435-.214.435-.427v-.853c0-.214-.217-.427-.434-.427-.215 0-.432.213-.432.427v.853c.072.213.217.427.433.427zM5.61 22.234c.218 0 .435-.213.435-.426v-4.694c0-.213-.217-.426-.434-.426-.215 0-.432.213-.432.426v4.694c.072.213.217.426.433.426zM7.417.048c-1.228 0-2.24.996-2.24 2.205 0 1.21 1.012 2.204 2.24 2.204 1.228 0 2.24-.995 2.24-2.204 0-1.21-1.012-2.205-2.24-2.205zm0 3.556c-.794 0-1.372-.64-1.372-1.35C6.045 1.47 6.695.9 7.417.9c.795 0 1.373.64 1.373 1.35.072.712-.578 1.352-1.373 1.352zM4.745 6.733c.65 0 1.083-.498 1.083-1.067 0-.64-.506-1.067-1.083-1.067-.65 0-1.084.497-1.084 1.066 0 .57.507 1.067 1.085 1.067zm0-1.352c.144 0 .288.144.288.286s-.144.284-.288.284c-.145 0-.29-.142-.29-.284s.145-.285.29-.285z" fill="#000C1F"/></g></svg>