<?xml version="1.0" encoding="UTF-8"?>
<svg width="33px" height="42px" viewBox="0 0 33 42" version="1.1" xmlns="http://www.w3.org/2000/svg" xmlns:xlink="http://www.w3.org/1999/xlink">
    <!-- Generator: Sketch 42 (36781) - http://www.bohemiancoding.com/sketch -->
    <title>trash-icon</title>
    <desc>Created with Sketch.</desc>
    <defs></defs>
    <g id="Page-1" stroke="none" stroke-width="1" fill="none" fill-rule="evenodd">
        <g id="Desktop-HD" transform="translate(-135.000000, -62.000000)" fill-rule="nonzero" fill="#FFFFFF">
            <g id="Header" transform="translate(127.000000, 0.000000)">
                <g id="trash-icon" transform="translate(8.000000, 62.000000)">
                    <path d="M13,0.614420063 C11.35,0.614420063 10,1.87617555 10,3.64263323 L10,4.65203762 L2.5,4.65203762 C1.15,4.65203762 0,5.81285266 0,7.17554859 L0,12.2225705 C0,13.5852665 1.15,14.7460815 2.5,14.7460815 L3,14.7460815 L3,39.476489 C3,40.839185 4.15,42 5.5,42 L27.5,42 C28.85,42 30,40.839185 30,39.476489 L30,14.7460815 L30.5,14.7460815 C31.85,14.7460815 33,13.5852665 33,12.2225705 L33,7.17554859 C33,5.81285266 31.85,4.65203762 30.5,4.65203762 L23,4.65203762 L23,3.64263323 C23,1.87617555 21.65,0.614420063 20,0.614420063 L13,0.614420063 L13,0.614420063 Z M13,3.64263323 L20,3.64263323 L20,4.65203762 L13,4.65203762 L13,3.64263323 Z M3,7.68025078 L30,7.68025078 L30,11.7178683 L3,11.7178683 L3,7.68025078 Z M6,14.7460815 L27,14.7460815 L27,38.9717868 L6,38.9717868 L6,14.7460815 Z M10.5,17.7742947 C9.65,17.7742947 9,18.4304075 9,19.2884013 L9,34.4294671 C9,35.2874608 9.65,35.9435737 10.5,35.9435737 C11.35,35.9435737 12,35.2874608 12,34.4294671 L12,19.2884013 C12,18.4304075 11.35,17.7742947 10.5,17.7742947 Z M16.5,17.7742947 C15.65,17.7742947 15,18.4304075 15,19.2884013 L15,34.4294671 C15,35.2874608 15.65,35.9435737 16.5,35.9435737 C17.35,35.9435737 18,35.2874608 18,34.4294671 L18,19.2884013 C18,18.4304075 17.35,17.7742947 16.5,17.7742947 Z M22.5,17.7742947 C21.65,17.7742947 21,18.4304075 21,19.2884013 L21,34.4294671 C21,35.2874608 21.65,35.9435737 22.5,35.9435737 C23.35,35.9435737 24,35.2874608 24,34.4294671 L24,19.2884013 C24,18.4304075 23.35,17.7742947 22.5,17.7742947 Z" id="Shape"></path>
                </g>
            </g>
        </g>
    </g>
</svg>